<?xml version="1.0" encoding="UTF-8" standalone="no"?>
<svg xmlns:sketch="http://www.bohemiancoding.com/sketch/ns" xmlns="http://www.w3.org/2000/svg" height="49px" width="307px" version="1.1" xmlns:xlink="http://www.w3.org/1999/xlink" viewBox="0 0 307 49">
<g sketch:type="MSPage" fill="none" fill-rule="evenodd">
<g sketch:type="MSLayerGroup">
<path d="m0.784 28.112c0 7.488 4.992 10.176 10.128 10.176s10.128-2.688 10.128-10.176v-13.68c0-1.392-0.816-2.256-2.112-2.256s-2.112 0.864-2.112 2.256v13.536c0 4.368-1.92 6.672-5.904 6.672s-5.904-2.304-5.904-6.672v-13.536c0-1.392-0.816-2.256-2.112-2.256s-2.112 0.864-2.112 2.256v13.68zm30.308-2.88c0-4.32 1.824-9.408 7.008-9.408s7.008 5.088 7.008 9.408-1.824 9.408-7.008 9.408-7.008-5.088-7.008-9.408zm-3.792 20.88c0 1.392 0.816 2.256 2.112 2.256s2.112-0.864 2.112-2.256v-11.28h0.096c1.104 1.584 3.456 3.456 6.816 3.456 6.912 0 10.896-6.288 10.896-13.056s-3.984-13.056-10.896-13.056c-3.36 0-5.616 1.2-6.816 3.504h-0.096v-1.248c0-1.392-0.816-2.256-2.112-2.256s-2.112 0.864-2.112 2.256v31.68zm32.228-9.648c0.432 1.248 0.864 1.824 2.208 1.824s1.776-0.576 2.208-1.824l7.344-20.592c0.288-0.768 0.432-1.248 0.432-1.728 0-1.248-0.912-1.968-1.92-1.968-1.392 0-1.872 0.672-2.208 1.632l-5.808 17.664h-0.096l-5.808-17.664c-0.336-0.96-0.816-1.632-2.208-1.632-1.008 0-1.92 0.72-1.92 1.968 0 0.48 0.144 0.96 0.432 1.728l7.344 20.592zm14.612-11.232c0 6.768 4.032 13.056 11.232 13.056s11.232-6.288 11.232-13.056-4.032-13.056-11.232-13.056-11.232 6.288-11.232 13.056zm4.224 0c0-4.32 1.824-9.408 7.008-9.408s7.008 5.088 7.008 9.408-1.824 9.408-7.008 9.408-7.008-5.088-7.008-9.408zm24.546-12.768h-1.73c-1.388 0-2.108 0.672-2.108 1.824s0.72 1.824 2.108 1.824h1.73v19.92c0 1.392 0.82 2.256 2.11 2.256 1.3 0 2.12-0.864 2.12-2.256v-19.92h1.72c1.4 0 2.12-0.672 2.12-1.824s-0.72-1.824-2.12-1.824h-1.72v-5.52c0-1.392-0.82-2.256-2.12-2.256-1.29 0-2.11 0.864-2.11 2.256v5.52zm30.21 14.4c1.83 0 2.36-0.768 2.36-2.256 0-6.144-4.04-12.432-11-12.432-7.15 0-11.47 6.144-11.47 13.056 0 6.768 3.55 13.056 11.71 13.056 5 0 10.23-3.168 10.23-5.232 0-1.2-0.77-1.872-1.54-1.872-1.58 0-3.02 3.456-8.64 3.456-4.75 0-7.53-3.408-7.53-7.776h15.88zm-15.88-3.168c0.14-3.888 2.01-8.064 7.24-7.872 4.66 0 6.77 4.224 6.77 7.872h-14.01zm39.9 1.536c0 4.32-1.82 9.408-7 9.408-5.19 0-7.01-5.088-7.01-9.408s1.82-9.408 7.01-9.408c5.18 0 7 5.088 7 9.408zm-0.43 10.8c0 1.392 0.82 2.256 2.11 2.256 1.3 0 2.12-0.864 2.12-2.256v-32.832c0-1.392-0.82-2.256-2.12-2.256-1.29 0-2.11 0.864-2.11 2.256v12.432h-0.09c-1.11-1.584-3.46-3.456-6.82-3.456-6.91 0-10.9 6.288-10.9 13.056s3.99 13.056 10.9 13.056c3.36 0 5.62-1.2 6.82-3.504h0.09v1.248z" fill="#000" sketch:type="MSShapeGroup"/>
<path d="m173.44 36.08c0.58 1.632 1.25 2.208 2.45 2.208 1.15 0 1.87-0.576 2.4-2.208l5.47-17.232h0.1l5.47 17.232c0.53 1.632 1.25 2.208 2.4 2.208 1.2 0 1.87-0.576 2.45-2.208l7-20.4c0.2-0.624 0.34-1.2 0.34-1.632 0-0.816-0.58-1.872-2.02-1.872-0.91 0-1.77 0.336-2.35 2.16l-5.42 17.424h-0.1l-5.33-16.8c-0.57-1.824-0.96-2.784-2.49-2.784-1.54 0-1.92 0.96-2.5 2.784l-5.33 16.8h-0.09l-5.43-17.424c-0.57-1.824-1.44-2.16-2.35-2.16-1.44 0-2.01 1.056-2.01 1.872 0 0.432 0.14 1.008 0.33 1.632l7.01 20.4zm50.04-9.216c1.82 0 2.35-0.768 2.35-2.256 0-6.144-4.03-12.432-10.99-12.432-7.16 0-11.48 6.144-11.48 13.056 0 6.768 3.56 13.056 11.72 13.056 4.99 0 10.22-3.168 10.22-5.232 0-1.2-0.77-1.872-1.54-1.872-1.58 0-3.02 3.456-8.64 3.456-4.75 0-7.53-3.408-7.53-7.776h15.89zm-15.89-3.168c0.14-3.888 2.01-8.064 7.25-7.872 4.65 0 6.76 4.224 6.76 7.872h-14.01zm41.35 3.168c1.82 0 2.35-0.768 2.35-2.256 0-6.144-4.03-12.432-10.99-12.432-7.16 0-11.48 6.144-11.48 13.056 0 6.768 3.56 13.056 11.72 13.056 4.99 0 10.22-3.168 10.22-5.232 0-1.2-0.77-1.872-1.54-1.872-1.58 0-3.02 3.456-8.64 3.456-4.75 0-7.53-3.408-7.53-7.776h15.89zm-15.89-3.168c0.14-3.888 2.01-8.064 7.25-7.872 4.65 0 6.76 4.224 6.76 7.872h-14.01zm22.77 12.336c0 1.392 0.82 2.256 2.11 2.256 1.3 0 2.11-0.864 2.11-2.256v-10.176l10.66 11.136c1.01 1.008 1.44 1.296 2.45 1.296 0.91 0 1.77-0.72 1.77-1.68 0-0.816-0.19-1.344-1-2.16l-11.14-10.992 9.6-7.584c0.82-0.624 1.06-1.2 1.06-1.824 0-1.056-0.68-1.872-1.78-1.872-0.72 0-1.54 0.528-2.4 1.296l-9.22 7.728v-18c0-1.392-0.81-2.256-2.11-2.256-1.29 0-2.11 0.864-2.11 2.256v32.832zm26.95-32.832c0-1.392-0.82-2.256-2.11-2.256-1.3 0-2.12 0.864-2.12 2.256v32.832c0 1.392 0.82 2.256 2.12 2.256 1.29 0 2.11-0.864 2.11-2.256v-32.832zm11.87 33.888l-2.68 7.152c-0.53 1.44-0.63 1.872-0.63 2.352 0 1.056 0.96 1.776 1.92 1.776 1.06 0 1.73-0.672 2.07-1.584l10.65-30.48c0.48-1.44 0.58-1.872 0.58-2.352 0-1.056-0.96-1.776-1.92-1.776-1.06 0-1.73 0.672-2.02 1.584l-5.76 17.52h-0.09l-5.86-17.52c-0.29-0.912-1.06-1.584-2.11-1.584-0.96 0-1.92 0.72-1.92 1.776 0 0.48 0.09 0.912 0.57 2.352l7.2 20.784z" fill="#FF4500" sketch:type="MSShapeGroup"/>
</g>
</g>
</svg>
